<svg id="Layer_1" data-name="Layer 1" xmlns="http://www.w3.org/2000/svg" width="1920" height="1080" viewBox="0 0 1920 1080"><defs><style>.cls-1{fill:#00aed9;}.cls-2,.cls-3{fill:#5dbb46;}.cls-2{stroke:#000;stroke-miterlimit:10;}.cls-4{opacity:0.54;}.cls-5{fill:#fff;}.cls-6{opacity:0.48;}.cls-7{opacity:0.5;}.cls-8{opacity:0.55;}.cls-9{fill:#a67c52;}.cls-10{fill:#c69c6d;}</style></defs><path class="cls-1" d="M979.25,782.73A255.31,255.31,0,0,1,723.92,527.4c0-.53,0-1.14,0-1.83a220.75,220.75,0,0,1,10.53-70.92c15.06-46.69,47.09-92.42,87.9-125.46,46.13-37.36,100.13-57.11,156.18-57.11h.72c64.38.2,129,27,177.15,73.48,50.41,48.63,78.18,113.21,78.18,181.84A255.31,255.31,0,0,1,979.25,782.73Z"/><path d="M978.52,271.58v1h.72a247.38,247.38,0,0,1,95.36,19.65A264,264,0,0,1,1156,345.91c50.32,48.55,78,113,78,181.49a254.83,254.83,0,1,1-509.65,0c0-.53,0-1.14,0-1.83a220.41,220.41,0,0,1,10.5-70.77A254.57,254.57,0,0,1,768.45,388a282.33,282.33,0,0,1,54.2-58.4c46-37.28,99.94-57,155.87-57v-1m0,0c-120.7,0-215.11,91.61-244.56,182.92a222.84,222.84,0,0,0-10.54,72.9c0,141.29,114.54,255.83,255.83,255.83s255.82-114.54,255.82-255.83c0-145.19-123.62-255.42-255.82-255.82Z"/><path class="cls-2" d="M728.13,481.91a173.45,173.45,0,0,0,27.19-6.8c16.07-5.41,25.52-8.6,34-17.48,3.23-3.38,14-14.7,13.6-31.07-.42-15.77-11-26.48-15.54-31.08-5.12-5.18-8.24-8.34-11.65-8.74C766.71,385.7,752.27,403.53,728.13,481.91Z"/><path class="cls-3" d="M1074.2,506c-9.35,0-17.68-5-20.74-12.46-1.4-3.41-1.78-7.19-2.14-10.85a60.44,60.44,0,0,0-1.1-7.63c-2.13-9.06-8.32-16.42-14.3-23.53l-.52-.62c-4.43-5.28-8.61-10.51-11.11-16.56a48.5,48.5,0,0,1-3.14-13.59c-1.14-11.2,2.73-37.75,14.53-50.82,4.38-4.85,9.4-7.31,14.9-7.31a20.93,20.93,0,0,1,4.45.5c3.77.84,6,2.07,6.83,3.75,1.1,2.22-.26,5.16-1.83,8.56a32.08,32.08,0,0,0-2.67,7.19c-2.39,12.12,4.14,26.3,11.22,34.35a93.2,93.2,0,0,0,11.58,10.48,96,96,0,0,1,10.92,9.74,48.65,48.65,0,0,1,11.84,39.51c-2,12.82-9.58,23.38-19.71,27.56a23.7,23.7,0,0,1-9,1.73Z"/><path d="M1050.58,363.12a19.85,19.85,0,0,1,4.34.49c3.61.81,5.74,1.94,6.49,3.48,1,2-.32,4.84-1.84,8.12a32.83,32.83,0,0,0-2.7,7.32c-2.42,12.28,4.18,26.63,11.33,34.77a93.36,93.36,0,0,0,11.65,10.54,95.89,95.89,0,0,1,10.86,9.69,48.15,48.15,0,0,1,11.72,39.09c-2,12.65-9.44,23.07-19.41,27.18a23.32,23.32,0,0,1-8.82,1.69c-9.14,0-17.29-4.88-20.28-12.15-1.37-3.34-1.73-6.92-2.1-10.71a60.3,60.3,0,0,0-1.12-7.7c-2.15-9.17-8.37-16.57-14.39-23.73l-.52-.62c-4.41-5.25-8.57-10.45-11-16.43a47.86,47.86,0,0,1-3.1-13.45c-1.14-11.12,2.7-37.48,14.4-50.43,4.28-4.75,9.17-7.15,14.53-7.15m0-1c-23.16,0-31.61,42.16-29.92,58.68a48.91,48.91,0,0,0,3.17,13.73c2.57,6.22,6.87,11.54,11.19,16.69,6.09,7.24,12.55,14.73,14.71,23.94,1.44,6.14.88,12.74,3.27,18.56,3.36,8.19,12.3,12.77,21.2,12.77a24.25,24.25,0,0,0,9.2-1.76c11.07-4.57,18.14-16.12,20-28a48.85,48.85,0,0,0-12-39.92c-6.81-7.46-15.83-12.64-22.5-20.22-7.47-8.5-13.38-22.38-11.1-33.92,1.73-8.78,11.56-16.9-2.71-20.08a20.46,20.46,0,0,0-4.56-.52Z"/><path class="cls-2" d="M1228.22,469.81c-19.61,4.88-41.87-4.08-52.61-21.19-5.83-9.27-8.93-21-18.12-26.94-11.29-7.32-27.23-2.81-38.76-9.75-9.77-5.89-13.42-18.16-15.11-29.45s-2.48-23.36-9.18-32.6c-4.06-5.6-10-9.67-13.78-15.45-7.35-11.23-4.36-27.53-1.78-40.7,8.19,4.1,17.09,7.11,25.28,11.21,4,2,9.49,5.62,13.32,8,3.63,2.3,7.68,4.91,11.08,7.55,2.76,2.13,2.59,3.26,5.35,5.4,5.07,3.93,11.83,7.7,16.51,12.1,7.64,7.16,16.75,15.11,23.19,23.37,4.31,5.53,9.16,11.2,13.47,16.73,1.05,1.34,2.59,4.45,4,5.48,1.11.84,1.38,2.82,2.5,3.64,2.28,1.65,1.9,3,3.48,5.28,5.1,7.53,8.59,14.92,12.85,22.53,4.85,8.67,7.27,15.13,10.73,23.21C1225,448.48,1228,458.7,1228.22,469.81Z"/><path class="cls-3" d="M901.09,705.48a25,25,0,0,1-18.6-8.87c-7.33-8.93-9.11-21-10.83-32.59l-.09-.57c-1.78-12-4.23-24.46-12.68-33A59.84,59.84,0,0,0,849,623a60.14,60.14,0,0,1-9.44-7.06c-6-5.85-9-14.93-8-24.28s5.83-17.58,12.92-22c5.13-3.23,11.15-4.82,16.9-6l.88-.19c8.28-1.79,16.85-3.63,25.27-3.63A40.43,40.43,0,0,1,904.16,563c14.49,6.37,24.82,9,41,10.61,10.54,1,18.5,3.77,24.33,8.39,7.27,5.77,10.82,15.12,8.64,22.73-2.78,9.68-12.62,14.44-22.13,19.05-2.82,1.36-5.73,2.77-8.4,4.29a58.27,58.27,0,0,0-29,45.88c-.14,1.93-.2,3.94-.26,5.88-.23,7.59-.48,15.44-5.4,20.85a15.46,15.46,0,0,1-11.78,4.85Z"/><path d="M887.58,560.27A40,40,0,0,1,904,563.4c14.36,6.32,25.12,9.11,41.11,10.66,10.43,1,18.3,3.72,24.06,8.29,7.12,5.64,10.6,14.77,8.47,22.19-2.72,9.47-12.46,14.18-21.87,18.74-2.83,1.37-5.75,2.78-8.42,4.3A58.8,58.8,0,0,0,918,673.86c-.14,1.94-.2,4-.26,5.9-.23,7.5-.47,15.26-5.27,20.53A15.12,15.12,0,0,1,901.09,705a24.53,24.53,0,0,1-18.22-8.69c-7.23-8.82-9-20.77-10.72-32.34l-.08-.57c-1.8-12.1-4.27-24.64-12.82-33.24a59.7,59.7,0,0,0-10-7.54,60.48,60.48,0,0,1-9.36-7c-5.88-5.75-8.8-14.68-7.82-23.87s5.72-17.3,12.69-21.68c5.06-3.18,11-4.76,16.73-6l.89-.19c8.25-1.78,16.79-3.62,25.16-3.62m0-1c-8.78,0-17.78,2-26.26,3.83-5.93,1.28-11.92,2.88-17.06,6.11-15.37,9.67-18,34.42-5,47.11,5.76,5.64,13.61,8.81,19.3,14.53,8.37,8.42,10.79,20.93,12.54,32.68s3.49,24.21,11,33.39a25.54,25.54,0,0,0,19,9.06,16,16,0,0,0,12.15-5c6.34-7,5.1-17.63,5.79-27a58.15,58.15,0,0,1,28.77-45.49c11.6-6.58,27.07-10.81,30.76-23.63,2.43-8.45-1.92-17.79-8.81-23.26s-15.84-7.65-24.59-8.5c-15.91-1.54-26.38-4.23-40.8-10.57a41.25,41.25,0,0,0-16.78-3.22Z"/><path class="cls-3" d="M1068,711.16a44.53,44.53,0,0,1-6.1-.43,21.47,21.47,0,0,1-9-2.86c-7.33-4.7-8.5-14.58-8.69-24.56-.24-13.16-.49-26.77,3.83-39.47,2.5-7.34,6.51-14.18,10.38-20.8,2.44-4.16,5-8.46,7.1-12.87,6.11-12.61,5.92-22.29,3.64-33.81-.93-4.72-.49-8.09,1.34-10.33s5-3.28,9.65-3.28c.69,0,1.41,0,2.16.07l2.77.19c3.25.23,6.61.46,9.92.46,7.93,0,13.53-1.38,18.15-4.47,3.44-2.3,6.15-5.55,8.77-8.69,3-3.58,6.06-7.28,10.17-9.43a18.94,18.94,0,0,1,8.88-2.08A26.81,26.81,0,0,1,1153.4,542c6.7,3.59,11.86,9.33,16.44,15l.18.23c3.73,4.62,8,9.86,14,11a13.48,13.48,0,0,0,2.37.22c6.61,0,12.48-5,17.66-9.47l1.86-1.58c3.55-3,9.22-6.18,14.47-6.18a9.14,9.14,0,0,1,7.06,2.94c2.92,3.2,3.06,8,2.78,12.68a160.58,160.58,0,0,1-14.55,57.5c-2.39,5.14-5.55,10.67-10.81,12.78a19.5,19.5,0,0,1-7.31,1.11c-.82,0-1.65,0-2.47,0s-1.68,0-2.51,0a26.6,26.6,0,0,0-5,.39c-7.71,1.46-13.06,7.52-18.23,13.38-4,4.54-8.17,9.24-13.43,11.88s-11.58,3.09-17.59,3.47c-5.35.34-10.88.69-15.93,2.63-9.29,3.57-15.52,11.8-21.55,19.76-5.83,7.7-11.86,15.66-20.61,19.28a31.69,31.69,0,0,1-12.15,2.23Z"/><path d="M1141,539.3a26.28,26.28,0,0,1,12.12,3.17c6.62,3.54,11.74,9.25,16.29,14.88l.18.23c3.78,4.69,8.07,10,14.27,11.13a13.57,13.57,0,0,0,2.46.23c6.79,0,12.74-5.1,18-9.59l1.86-1.58c3.49-2.93,9-6.06,14.15-6.06a8.69,8.69,0,0,1,6.69,2.77c2.79,3.07,2.92,7.74,2.65,12.32a159.85,159.85,0,0,1-14.51,57.32c-2.35,5-5.44,10.48-10.54,12.53a19.22,19.22,0,0,1-7.13,1.07c-.81,0-1.63,0-2.45,0s-1.68,0-2.52,0a27.54,27.54,0,0,0-5.12.4c-7.88,1.5-13.29,7.62-18.52,13.54-4,4.5-8.1,9.16-13.27,11.76s-11.17,3-17.4,3.42c-5.39.34-11,.7-16.07,2.66-9.43,3.62-15.71,11.91-21.78,19.93-5.79,7.65-11.78,15.55-20.4,19.12a31.09,31.09,0,0,1-12,2.19,45.21,45.21,0,0,1-6-.42,21,21,0,0,1-8.75-2.79c-7.13-4.58-8.28-14.31-8.46-24.15-.24-13.12-.48-26.68,3.8-39.3,2.48-7.29,6.48-14.11,10.34-20.71,2.44-4.17,5-8.48,7.12-12.9,4.45-9.18,6.78-18.5,3.68-34.13-.89-4.49-.47-7.83,1.24-9.91s4.8-3.1,9.26-3.1c.67,0,1.39,0,2.13.07l2.76.19c3.27.22,6.64.46,10,.46,8,0,13.72-1.4,18.43-4.55,3.5-2.34,6.23-5.62,8.87-8.79,3.09-3.71,6-7.21,10-9.31a18.44,18.44,0,0,1,8.64-2m0-1a19.48,19.48,0,0,0-9.11,2.14c-7.8,4.08-11.67,13.25-19,18.15-5.24,3.5-11.47,4.38-17.87,4.38-4.22,0-8.51-.38-12.66-.65-.76,0-1.49-.07-2.19-.07-9.78,0-13.35,4.75-11.48,14.2,2.44,12.32,2.08,21.77-3.6,33.5-5.54,11.42-13.42,21.72-17.5,33.73-4.3,12.64-4.1,26.3-3.86,39.64.17,9.22,1.15,20,8.92,25a22.5,22.5,0,0,0,9.15,2.94,45.48,45.48,0,0,0,6.17.43,32,32,0,0,0,12.34-2.27c17.94-7.41,24-32.08,42.15-39,10.68-4.1,23.34-1,33.56-6.12,12.22-6.14,18.11-22.67,31.54-25.22a27,27,0,0,1,4.93-.38c1.66,0,3.33.08,5,.08a20,20,0,0,0,7.5-1.14c5.43-2.18,8.61-7.74,11.08-13a159.88,159.88,0,0,0,14.6-57.68c.27-4.58.17-9.66-2.91-13.05a9.68,9.68,0,0,0-7.43-3.1c-5,0-10.72,2.87-14.79,6.3-5.75,4.83-12,10.93-19.2,10.93a12.73,12.73,0,0,1-2.28-.21c-5.93-1.08-10.06-6.31-13.85-11-4.74-5.87-10-11.58-16.6-15.14A27.18,27.18,0,0,0,1141,538.3Z"/><path class="cls-2" d="M819.06,332.86c2.73,10.57,3.2,22.72,13.26,27,5,2.11,10.66,2.43,15.46,5,7.56,4,11.5,12.62,13.07,21s1.35,17.08,3.29,25.4c2.63,11.21,9.9,21.89,20.7,25.86s24.86-.78,28.84-11.58c2.17-5.88,1.25-12.37.93-18.63-1.67-33.52,16.87-67.27,46.07-83.85,8-4.57,17.54-8.7,20.9-17.32,4.56-11.71-4.84-23.89-13.84-32.65-30.38-4.28-54.37,3.45-88.32,17.28C850.53,302.1,818.38,330.23,819.06,332.86Z"/><g class="cls-4"><path class="cls-5" d="M1186.64,640.56c-4.76.47-8.63,3.41-11.72,6.89-3.59,4-6.73,8.53-10,12.82-.29.38.36.75.65.38,3.1-4,6.09-8.22,9.41-12.09,3-3.55,6.87-6.78,11.69-7.25.48,0,.48-.8,0-.75Z"/></g><g class="cls-6"><path class="cls-5" d="M921.39,674.56a52.34,52.34,0,0,1,18.72-37.63,50.1,50.1,0,0,1,10.45-6.7c.44-.21.06-.85-.38-.65a53,53,0,0,0-27.54,32.71,50.57,50.57,0,0,0-2,12.27c0,.48.73.48.75,0Z"/></g><g class="cls-7"><path class="cls-5" d="M916.77,417.72c1.18,11.7-7.36,21.38-18,25-.45.15-.26.88.2.72,10.91-3.67,19.74-13.65,18.53-25.68,0-.48-.8-.48-.75,0Z"/></g><g class="cls-6"><path class="cls-5" d="M792.38,399c5.89,8,12.45,17.16,10.71,27.67-.08.47.65.67.72.2,1.78-10.75-4.74-20.07-10.79-28.25-.28-.38-.93,0-.64.38Z"/></g><g class="cls-8"><path class="cls-5" d="M1040.38,460.8a29.8,29.8,0,0,1,8.34,22.78c0,.48.71.48.75,0a30.52,30.52,0,0,0-8.56-23.31.38.38,0,0,0-.53.53Z"/></g><path class="cls-2" d="M936.31,676c-1,5.3-1.25,11.55,2.67,15.25,2.56,2.41,6.33,3.07,9.85,3,13.88-.24,26.11-9.9,33.79-21.46,3.52-5.3,6.37-12.05,3.81-17.88-3.65-8.27-22.1-14.2-30.46-11.69C943.68,646.93,938.28,665.09,936.31,676Z"/><path class="cls-2" d="M778,501.16c8.67-1.33,17.56,2.42,26.19.86,4.26-.78,8.17-2.8,12.08-4.67,12.87-6.14,28.23-10.73,41.06-4.5,3.59,1.75,6.86,4.3,10.75,5.24,6.54,1.57,15.64-.61,18.34,5.55,2.46,5.62-4.12,11-10,12.83-14.25,4.5-29.58,3-44.53,2.92-2,0-4.14.06-5.74,1.26s-2.31,3.44-2.81,5.47c-3.12,12.86-4.67,26.51-11.71,37.72s-22,19-33.7,12.74c-7.22-3.86-11.17-11.93-13.24-19.85S762,540.51,759,532.9c-1.91-4.81-6.47-7.8-8.46-12.06-2.55-5.48-2.19-3.85,3.14-7.4C760.87,508.61,769.24,502.5,778,501.16Z"/><path class="cls-9" d="M-4.06,546.23c3.34-1.14,11.47-.28,27.72,1.44C35.91,549,42,550.24,53.79,552c10.26,1.5,19.75,2.44,38.73,4.3,19.18,1.89,33.22,3,48.78,4.31l70.29,5.74c36.43,2.8,56.34,4.34,80.33,5.73,51.23,3,52.43,1.34,116.2,4.31,48.1,2.24,52.23,3.4,87.51,4.3,42.65,1.09,29.77-.78,77.47,0,50.23.82,67.91,3,90.37-8.61,11.14-5.73,10.08-7.94,27.26-17.21s22.84-9.56,55.95-23c27-10.91,27.85-12.59,40.17-15.78,14.82-3.85,24.7-4,44.47-4.31,12.37-.19,16.27.58,17.21,2.87,2,4.93-10.49,14.92-18.65,20.09-10.92,6.92-15.09,5.89-30.12,12.91-12.29,5.73-27.92,13-27.26,20.08.11,1.23,1,5.48,24.39,12.91,16.93,5.38,24.88,5.82,44.47,10,33.2,7.15,29.07,9.9,41.6,10,12,.14,23.84,3.78,35.87,4.31a9.06,9.06,0,0,1,5.74,2.07,8.68,8.68,0,0,1,2.57,7.13c-.54,5.38-6.16,8.09-7.13,8.56-4.13,2-8.07,1.45-10.84,1.14-7.56-.84-15.22.1-22.82-.29-27.84-1.42-28.43,0-39.08-1.42-4.81-.63-9.76,0-14.54-.86-2.35-.42-5.62-1.15-8.56.57-.4.24-2.85,1.67-2.85,3.71s2.17,3.33,3.7,4.28a22.76,22.76,0,0,0,9.7,3.14c6.15.63.13.85,16.83,3.71,8.64,1.47,11.43,1.61,22.53,3.13,14.29,2,11,1.9,26,4,7,1,13.87,2.71,20.82,4,5.07.93,8.85,1.6,11.7,4.85,2.06,2.34,4.18,6.66,2.57,10.27s-6.16,4.57-8.85,5.13a23.29,23.29,0,0,1-10.27-.28c-7.55-1.78-15.43-1.69-23.1-2.86-16.72-2.55-15-.79-33.09-3.42-7.4-1.07-14.92-1.35-22.25-2.85-6.51-1.34-13.13-3.17-16.82.28a4.74,4.74,0,0,0-1.72,3.43c.23,3.21,5.93,5.25,10,6.56a179.42,179.42,0,0,0,25.67,6c14.3,2.6,11.68,4.26,30.52,8.27-35.9-7.64,13.07,3.42,19.68,5.13,7.62,2,11.6,3,13.41,6.56,1.53,3.06,1.24,7.5-1.14,10-2.13,2.21-5.36,2.27-6.85,2.28-13.2,0-26.81-3.71-26.81-3.71-3.83-1,.14.24-28.81-4.56-9.29-1.54-18.64-2.64-28-4-9.7-1.41-16.51-2.43-17.4-.28-.7,1.67,2.51,4.54,2.85,4.85a15.2,15.2,0,0,0,8.27,3.42c5.89.92,11.35,3.63,17.11,5.13,14.54,3.8,13.06,3.28,17.69,4.57,6.25,1.73,4.17,1.35,20.54,6.56,11.76,3.74,15.24,4.71,16.83,8.27,1.3,2.94,1,7-1.15,9.13-2.42,2.3-6.56,1.5-8.55,1.14-9.11-1.64-18.62-.36-27.67-2.28-9.35-2-22.61-4.29-42.22-6.56-26.67-4.3-48.39-9-64.46-12.84-17.68-4.24-27.48-7.22-37.94-11.41C697.66,699.47,685,693,685,693c-12.49-6.4-14.85-8.68-24-12.27a123.49,123.49,0,0,0-23.67-6.56c-5.61-1.06-12-1.95-34.8-2.85-6-.24-14.26-.52-31.66-.86-8.3-.16-19.85-.35-40.79-.57-18.57-.19-27.86-.29-33.66-.28-16.7,0-24.51.3-61.61,1.14-29,.66-23.57.46-39.65.85-16.46.41-39,1-66.74,2l-53.34,2.28c-23.92,1-37.31,1.6-56.48,2.28-16.42.59-14.94.46-25.67.86-30.15,1.12-39.88,2-68.14,3.38-43.87,2.08-36.8.63-58.57,2.25-19.14,1.43-38.37,1.76-57.44,3.94-8.94,1-10.29,1.38-12.85.57C-36.12,679-35,556.82-4.06,546.23Z"/><path class="cls-10" d="M2013.74,536.37c-3.37,1.09-11.48.09-27.7-1.9-12.22-1.5-18.28-2.89-30-4.81-10.24-1.68-19.71-2.77-38.66-5-19.14-2.21-33.16-3.59-48.69-5.13l-70.19-6.92c-36.37-3.42-56.26-5.29-80.22-7.1-51.17-3.84-52.4-2.21-116.11-6.26-48-3.05-52.17-4.28-87.43-5.78-42.62-1.81-29.77.28-77.45-1.31-50.21-1.67-67.85-4.1-90.51,7.08-11.23,5.54-10.21,7.77-27.55,16.75s-23,9.17-56.32,22c-27.14,10.44-28.07,12.11-40.43,15.09-14.89,3.6-24.77,3.59-44.54,3.56-12.37,0-16.26-.85-17.16-3.16-1.94-5,10.74-14.74,19-19.77,11-6.74,15.2-5.64,30.34-12.4,12.38-5.52,28.13-12.55,27.59-19.62-.09-1.23-.91-5.5-24.16-13.32-16.84-5.67-24.78-6.24-44.3-10.79-33.07-7.71-28.89-10.39-41.42-10.75-12-.34-23.77-4.17-35.79-4.9a9.14,9.14,0,0,1-5.71-2.17,8.73,8.73,0,0,1-2.45-7.18c.63-5.36,6.3-8,7.28-8.43,4.16-1.92,8.09-1.31,10.85-1,7.55,1,15.23.16,22.82.67,27.81,1.89,28.42.52,39,2.09,4.81.7,9.77.16,14.53,1.1,2.34.46,5.6,1.24,8.57-.43.41-.23,2.87-1.61,2.91-3.66s-2.12-3.36-3.63-4.34a22.72,22.72,0,0,0-9.64-3.3c-6.14-.74-.12-.85-16.77-4-8.61-1.62-11.39-1.81-22.48-3.52-14.25-2.19-10.94-2.08-25.88-4.43-7-1.1-13.83-2.95-20.75-4.34-5.05-1-8.82-1.76-11.61-5-2-2.38-4.08-6.73-2.4-10.31s6.24-4.47,8.93-5a23.13,23.13,0,0,1,10.26.45c7.52,1.91,15.4,1.95,23.05,3.25,16.67,2.83,15,1.05,33,4,7.38,1.2,14.9,1.6,22.2,3.23,6.49,1.44,13.07,3.38,16.83,0a4.69,4.69,0,0,0,1.77-3.39c-.17-3.22-5.84-5.35-9.87-6.73a177.33,177.33,0,0,0-25.57-6.42c-14.25-2.84-11.61-4.46-30.38-8.79,35.77,8.25-13-3.64-19.59-5.46-7.58-2.1-11.55-3.18-13.29-6.79-1.49-3.08-1.12-7.51,1.31-10,2.16-2.18,5.39-2.19,6.88-2.17,13.19.19,26.75,4.16,26.75,4.16,3.8,1.12-.14-.24,28.72,5,9.26,1.7,18.6,3,27.89,4.47,9.66,1.57,16.46,2.71,17.39.58.72-1.66-2.44-4.59-2.77-4.9a15.21,15.21,0,0,0-8.21-3.56c-5.87-1-11.29-3.82-17-5.42-14.46-4-13-3.5-17.6-4.87-6.22-1.83-4.15-1.41-20.43-6.9-11.69-3.95-15.16-5-16.69-8.56-1.25-3-.92-7.06,1.3-9.1,2.46-2.27,6.59-1.39,8.58-1,9.07,1.8,18.6.68,27.62,2.75,9.32,2.14,22.54,4.67,42.1,7.27,26.59,4.75,48.24,9.8,64.24,13.92,17.6,4.54,27.36,7.69,37.73,12.05,12.9,5.43,25.48,12.13,25.48,12.13,12.38,6.6,14.7,8.93,23.74,12.67a123.9,123.9,0,0,0,23.57,7c5.58,1.15,12,2.15,34.74,3.44,6,.33,14.24.76,31.64,1.39,8.3.3,19.84.69,40.78,1.26,18.56.5,27.84.76,33.65.85,16.69.27,24.5.11,61.62-.1,29-.17,23.58-.06,39.65-.19,16.47-.12,39-.3,66.77-.86l53.37-1.39c23.93-.62,37.33-1,56.51-1.32,16.43-.31,14.94-.21,25.68-.42,30.16-.61,39.91-1.37,68.19-2.23,43.9-1.34,36.8,0,58.6-1.26,19.16-1.11,38.39-1.12,57.49-3,9-.87,10.32-1.2,12.87-.34C2048,404.2,2044.81,526.31,2013.74,536.37Z"/></svg>